<?xml version="1.0" encoding="UTF-8"?>
<svg xmlns="http://www.w3.org/2000/svg" xmlns:xlink="http://www.w3.org/1999/xlink" width="39pt" height="38.999999pt" viewBox="0 0 39 38.999999" version="1.2">
<defs>
<clipPath id="clip1">
  <path d="M 18 2.425781 L 21 2.425781 L 21 9 L 18 9 Z M 18 2.425781 "/>
</clipPath>
<clipPath id="clip2">
  <path d="M 18 30 L 21 30 L 21 36.925781 L 18 36.925781 Z M 18 30 "/>
</clipPath>
<clipPath id="clip3">
  <path d="M 29 18 L 35.753906 18 L 35.753906 21 L 29 21 Z M 29 18 "/>
</clipPath>
<clipPath id="clip4">
  <path d="M 2.917969 18 L 9 18 L 9 21 L 2.917969 21 Z M 2.917969 18 "/>
</clipPath>
</defs>
<g id="surface1">
<path style=" stroke:none;fill-rule:nonzero;fill:rgb(98.429871%,78.039551%,2.749634%);fill-opacity:1;" d="M 28.832031 19.660156 C 28.832031 25.238281 24.578125 29.757812 19.332031 29.757812 C 14.085938 29.757812 9.835938 25.238281 9.835938 19.660156 C 9.835938 14.085938 14.085938 9.566406 19.332031 9.566406 C 24.578125 9.566406 28.832031 14.085938 28.832031 19.660156 "/>
<g clip-path="url(#clip1)" clip-rule="nonzero">
<path style=" stroke:none;fill-rule:nonzero;fill:rgb(98.429871%,78.039551%,2.749634%);fill-opacity:1;" d="M 20.210938 7.84375 C 20.210938 8.355469 19.820312 8.773438 19.332031 8.773438 C 18.847656 8.773438 18.457031 8.355469 18.457031 7.84375 L 18.457031 3.363281 C 18.457031 2.847656 18.847656 2.429688 19.332031 2.429688 C 19.820312 2.429688 20.210938 2.847656 20.210938 3.363281 L 20.210938 7.84375 "/>
</g>
<g clip-path="url(#clip2)" clip-rule="nonzero">
<path style=" stroke:none;fill-rule:nonzero;fill:rgb(98.429871%,78.039551%,2.749634%);fill-opacity:1;" d="M 20.210938 36.359375 C 20.210938 36.875 19.820312 37.292969 19.332031 37.292969 C 18.847656 37.292969 18.457031 36.875 18.457031 36.359375 L 18.457031 31.882812 C 18.457031 31.367188 18.847656 30.949219 19.332031 30.949219 C 19.820312 30.949219 20.210938 31.367188 20.210938 31.882812 L 20.210938 36.359375 "/>
</g>
<g clip-path="url(#clip3)" clip-rule="nonzero">
<path style=" stroke:none;fill-rule:nonzero;fill:rgb(98.429871%,78.039551%,2.749634%);fill-opacity:1;" d="M 30.640625 20.796875 C 30.152344 20.796875 29.761719 20.378906 29.761719 19.863281 C 29.761719 19.347656 30.152344 18.929688 30.640625 18.929688 L 34.855469 18.929688 C 35.339844 18.929688 35.730469 19.347656 35.730469 19.863281 C 35.730469 20.378906 35.339844 20.796875 34.855469 20.796875 L 30.640625 20.796875 "/>
</g>
<g clip-path="url(#clip4)" clip-rule="nonzero">
<path style=" stroke:none;fill-rule:nonzero;fill:rgb(98.429871%,78.039551%,2.749634%);fill-opacity:1;" d="M 3.8125 20.796875 C 3.324219 20.796875 2.933594 20.378906 2.933594 19.863281 C 2.933594 19.347656 3.324219 18.929688 3.8125 18.929688 L 8.027344 18.929688 C 8.511719 18.929688 8.902344 19.347656 8.902344 19.863281 C 8.902344 20.378906 8.511719 20.796875 8.027344 20.796875 L 3.8125 20.796875 "/>
</g>
<path style=" stroke:none;fill-rule:nonzero;fill:rgb(98.429871%,78.039551%,2.749634%);fill-opacity:1;" d="M 13.914062 9.269531 C 14.179688 9.703125 14.0625 10.28125 13.65625 10.5625 C 13.25 10.84375 12.707031 10.71875 12.441406 10.285156 L 10.148438 6.527344 C 9.882812 6.097656 10 5.519531 10.410156 5.238281 C 10.8125 4.957031 11.355469 5.078125 11.617188 5.511719 L 13.914062 9.269531 "/>
<path style=" stroke:none;fill-rule:nonzero;fill:rgb(98.429871%,78.039551%,2.749634%);fill-opacity:1;" d="M 28.519531 33.195312 C 28.777344 33.628906 28.664062 34.207031 28.257812 34.488281 C 27.855469 34.769531 27.308594 34.640625 27.042969 34.210938 L 24.75 30.453125 C 24.488281 30.023438 24.605469 29.445312 25.007812 29.164062 C 25.417969 28.882812 25.960938 29.003906 26.226562 29.4375 L 28.519531 33.195312 "/>
<path style=" stroke:none;fill-rule:nonzero;fill:rgb(98.429871%,78.039551%,2.749634%);fill-opacity:1;" d="M 29.296875 14.101562 C 28.890625 14.382812 28.34375 14.257812 28.085938 13.828125 C 27.820312 13.394531 27.933594 12.816406 28.339844 12.539062 L 31.875 10.097656 C 32.28125 9.816406 32.824219 9.941406 33.089844 10.375 C 33.351562 10.804688 33.238281 11.382812 32.832031 11.664062 L 29.296875 14.101562 "/>
<path style=" stroke:none;fill-rule:nonzero;fill:rgb(98.429871%,78.039551%,2.749634%);fill-opacity:1;" d="M 6.789062 29.625 C 6.382812 29.90625 5.835938 29.78125 5.578125 29.351562 C 5.3125 28.917969 5.425781 28.339844 5.835938 28.0625 L 9.367188 25.621094 C 9.78125 25.339844 10.320312 25.464844 10.582031 25.898438 C 10.84375 26.328125 10.730469 26.910156 10.324219 27.1875 L 6.789062 29.625 "/>
<path style=" stroke:none;fill-rule:nonzero;fill:rgb(98.429871%,78.039551%,2.749634%);fill-opacity:1;" d="M 9.882812 13.203125 C 10.304688 13.453125 10.453125 14.019531 10.21875 14.472656 C 9.984375 14.921875 9.449219 15.082031 9.023438 14.832031 L 5.34375 12.65625 C 4.917969 12.402344 4.769531 11.832031 5.003906 11.382812 C 5.238281 10.933594 5.773438 10.773438 6.195312 11.023438 L 9.882812 13.203125 "/>
<path style=" stroke:none;fill-rule:nonzero;fill:rgb(98.429871%,78.039551%,2.749634%);fill-opacity:1;" d="M 33.320312 27.070312 C 33.746094 27.320312 33.898438 27.890625 33.660156 28.339844 C 33.429688 28.789062 32.890625 28.949219 32.46875 28.699219 L 28.785156 26.523438 C 28.363281 26.269531 28.207031 25.703125 28.445312 25.253906 C 28.683594 24.804688 29.214844 24.640625 29.640625 24.890625 L 33.320312 27.070312 "/>
<path style=" stroke:none;fill-rule:nonzero;fill:rgb(98.429871%,78.039551%,2.749634%);fill-opacity:1;" d="M 25.597656 9.8125 C 25.363281 10.265625 24.828125 10.425781 24.40625 10.175781 C 23.980469 9.925781 23.828125 9.355469 24.0625 8.90625 L 26.113281 4.988281 C 26.351562 4.539062 26.882812 4.378906 27.308594 4.628906 C 27.726562 4.878906 27.878906 5.449219 27.648438 5.898438 L 25.597656 9.8125 "/>
<path style=" stroke:none;fill-rule:nonzero;fill:rgb(98.429871%,78.039551%,2.749634%);fill-opacity:1;" d="M 12.554688 34.734375 C 12.316406 35.183594 11.785156 35.347656 11.359375 35.09375 C 10.933594 34.84375 10.785156 34.273438 11.019531 33.824219 L 13.066406 29.910156 C 13.300781 29.460938 13.839844 29.300781 14.261719 29.550781 C 14.683594 29.800781 14.835938 30.367188 14.601562 30.820312 L 12.554688 34.734375 "/>
</g>
</svg>
